<svg width="114" height="41" viewBox="0 0 114 41" fill="none" xmlns="http://www.w3.org/2000/svg">
<path d="M43 30.9H46.5L47.8 27.1H54.7L56 30.9H59.6L53.4 13H49.2L43 30.9ZM48.7 24.2L51.2 16.7L53.7 24.2H48.7Z" fill="#232E35"/>
<path d="M63 30.2H66.1V12H63V30.2Z" fill="#232E35"/>
<path d="M75.7 30.6C77 30.6 78.2 30.3 79.2 29.7C80.2 29.1 80.9 28.3 81.3 27.4L78.8 26.2C78.5 26.7 78.1 27.1 77.6 27.4C77.1 27.7 76.5 27.9 75.8 27.9C74.9 27.9 74.1 27.6 73.4 27C72.7 26.4 72.4 25.7 72.3 24.7H81.7C81.8 24.5 81.8 24.3 81.8 24.1C81.8 23.9 81.8 23.6 81.8 23.4C81.8 22.2 81.6 21.2 81.1 20.2C80.6 19.2 79.9 18.5 78.9 17.9C78 17.3 76.8 17 75.4 17C74.2 17 73.1 17.3 72.1 17.9C71.1 18.5 70.3 19.3 69.8 20.3C69.2 21.3 69 22.5 69 23.8C69 25.1 69.3 26.2 69.8 27.3C70.4 28.3 71.1 29.2 72.2 29.8C73.2 30.3 74.3 30.6 75.7 30.6ZM75.4 19.5C76.2 19.5 76.9 19.8 77.5 20.3C78.1 20.8 78.4 21.4 78.4 22.2H72.3C72.5 21.3 72.8 20.7 73.4 20.2C74 19.8 74.7 19.5 75.4 19.5Z" fill="#232E35"/>
<path d="M85 30.1H88.7L91.4 26L94.1 30.1H97.8L93.3 23.5L97.9 17H94.2L91.5 21.1L88.7 17H85L89.6 23.5L85 30.1Z" fill="#232E35"/>
<path d="M101 30.4H104.2V27H101V30.4Z" fill="#232E35"/>
<path d="M20 0C9 0 0 9 0 20C0 31 9 40 20 40C31 40 40 31 40 20C40 9 31 0 20 0ZM11.8 27.5C9.6 27.5 7.8 25.7 7.8 23.5C7.8 21.3 9.6 19.5 11.8 19.5C14 19.5 15.8 21.3 15.8 23.5C15.8 25.7 14 27.5 11.8 27.5ZM28.5 26.4C26.7 27.5 24.3 26.8 23.2 25L17.6 15.3C16.5 13.5 17.2 11.1 19 10C20.8 8.9 23.2 9.6 24.3 11.4L29.9 21.1C31 23 30.3 25.4 28.5 26.4Z" fill="#232E35"/>
</svg>
